<svg width="25" height="24" viewBox="0 0 25 24" fill="none" xmlns="http://www.w3.org/2000/svg">
<g clip-path="url(#clip0_267_7219)">
<g filter="url(#filter0_d_267_7219)">
<path d="M12.5 1.49982C12.8629 1.49982 13.2256 1.51835 13.5867 1.55534L13.6634 0.80928C12.6291 0.703162 11.5852 0.739203 10.5608 0.916397L10.6892 1.65532C11.2873 1.55176 11.8931 1.49973 12.5 1.49982Z" fill="white"/>
<path d="M6.34511 3.49197L5.90497 2.8847C4.46272 3.9269 3.28862 5.29674 2.47934 6.88145C1.67005 8.46616 1.24873 10.2204 1.25004 11.9998C1.24514 13.7306 1.64368 15.4388 2.41404 16.9887L3.08604 16.6557C2.36722 15.2092 1.99538 13.6151 2.00004 11.9998C1.99871 10.3389 2.39195 8.70147 3.14737 7.22231C3.9028 5.74315 4.9988 4.46461 6.34511 3.49197Z" fill="white"/>
<path d="M12.8623 22.4937L12.8877 23.2432C13.9427 23.2081 14.9875 23.0244 15.9913 22.6974L15.7587 21.9844C14.822 22.2895 13.8469 22.4609 12.8623 22.4937Z" fill="white"/>
<path d="M23.5376 12.3617L16.7788 9.1106C16.5098 8.98163 16.2007 8.9646 15.9193 9.06325C15.6378 9.16189 15.4069 9.36816 15.2773 9.6368L13.25 13.8515V10.1248C13.2494 9.62771 13.0517 9.15112 12.7002 8.79962C12.3487 8.44811 11.8721 8.25038 11.375 8.24982H9.875V2.24982C9.875 1.85199 9.71696 1.47046 9.43566 1.18916C9.15436 0.907852 8.77282 0.749817 8.375 0.749817C7.97718 0.749817 7.59564 0.907852 7.31434 1.18916C7.03304 1.47046 6.875 1.85199 6.875 2.24982V8.24982H5.375C4.87789 8.25038 4.40131 8.44811 4.0498 8.79962C3.69829 9.15112 3.50056 9.62771 3.5 10.1248V19.8748C3.50046 20.2599 3.61929 20.6356 3.84039 20.9509C4.06149 21.2662 4.37417 21.5059 4.73608 21.6376C4.6558 21.8044 4.61795 21.9885 4.62589 22.1736C4.63383 22.3586 4.68731 22.5387 4.78159 22.6981C4.87587 22.8575 5.00803 22.9911 5.16635 23.0872C5.32466 23.1832 5.50424 23.2387 5.68914 23.2487C5.87405 23.2587 6.05856 23.223 6.22632 23.1445C6.39407 23.0661 6.53988 22.9475 6.65081 22.7993C6.76173 22.651 6.83434 22.4776 6.8622 22.2946C6.89005 22.1115 6.87229 21.9244 6.81049 21.7498H9.93951C9.87777 21.9243 9.86006 22.1114 9.88794 22.2944C9.91583 22.4775 9.98845 22.6508 10.0994 22.799C10.2103 22.9472 10.3561 23.0658 10.5238 23.1441C10.6915 23.2225 10.876 23.2583 11.0608 23.2483C11.2457 23.2383 11.4252 23.1828 11.5835 23.0868C11.7418 22.9908 11.8739 22.8572 11.9682 22.6979C12.0625 22.5385 12.116 22.3584 12.124 22.1734C12.1319 21.9885 12.0941 21.8044 12.0139 21.6376C12.3087 21.53 12.5719 21.3504 12.7796 21.1151C12.9872 20.8799 13.1328 20.5964 13.203 20.2906L18.4984 22.8377C18.5428 22.8591 18.591 22.8716 18.6401 22.8743C18.6893 22.8771 18.7386 22.8701 18.7851 22.8538C18.8315 22.8375 18.8744 22.8122 18.9111 22.7794C18.9478 22.7465 18.9776 22.7068 18.9989 22.6624L23.7129 12.8622C23.7561 12.7726 23.7618 12.6695 23.7289 12.5756C23.696 12.4818 23.6272 12.4048 23.5376 12.3617ZM5.75 22.4998C5.67583 22.4998 5.60333 22.4778 5.54166 22.4366C5.47999 22.3954 5.43193 22.3368 5.40355 22.2683C5.37516 22.1998 5.36774 22.1244 5.38221 22.0517C5.39667 21.9789 5.43239 21.9121 5.48484 21.8597C5.53728 21.8072 5.6041 21.7715 5.67684 21.757C5.74958 21.7426 5.82498 21.75 5.89351 21.7784C5.96203 21.8067 6.0206 21.8548 6.0618 21.9165C6.10301 21.9781 6.125 22.0506 6.125 22.1248C6.12489 22.2242 6.08534 22.3196 6.01504 22.3899C5.94474 22.4602 5.84942 22.4997 5.75 22.4998ZM6.5 20.2498H5.75V11.6248H6.5V20.2498ZM8.75 20.2498H8V11.6248H8.75V20.2498ZM9.125 8.24982H7.625V2.24982C7.625 2.0509 7.70402 1.86014 7.84467 1.71949C7.98532 1.57883 8.17609 1.49982 8.375 1.49982C8.57391 1.49982 8.76468 1.57883 8.90533 1.71949C9.04598 1.86014 9.125 2.0509 9.125 2.24982V8.24982ZM10.25 11.6248H11V20.2498H10.25V11.6248ZM11 22.4998C10.9258 22.4998 10.8533 22.4778 10.7917 22.4366C10.73 22.3954 10.6819 22.3368 10.6535 22.2683C10.6252 22.1998 10.6177 22.1244 10.6322 22.0517C10.6467 21.9789 10.6824 21.9121 10.7348 21.8597C10.7873 21.8072 10.8541 21.7715 10.9268 21.757C10.9996 21.7426 11.075 21.75 11.1435 21.7784C11.212 21.8067 11.2706 21.8548 11.3118 21.9165C11.353 21.9781 11.375 22.0506 11.375 22.1248C11.3749 22.2242 11.3353 22.3196 11.265 22.3899C11.1947 22.4602 11.0994 22.4997 11 22.4998ZM18.4856 21.9993L12.0648 18.9109C11.9752 18.8677 11.9063 18.7908 11.8734 18.6969C11.8406 18.6031 11.8463 18.5 11.8894 18.4103L15.4935 10.9176C15.5835 11.0083 15.6883 11.0829 15.8035 11.1383L22.2243 14.2267L18.4856 21.9993Z" fill="white"/>
<path d="M15.0164 14.5048C14.7913 14.9727 14.7101 15.4968 14.7829 16.0108C14.8557 16.5249 15.0793 17.0058 15.4255 17.3927C15.7716 17.7797 16.2247 18.0553 16.7275 18.1848C17.2303 18.3142 17.7601 18.2917 18.2501 18.12C18.7401 17.9483 19.1681 17.6351 19.4801 17.2202C19.7921 16.8052 19.974 16.307 20.0029 15.7886C20.0318 15.2703 19.9063 14.755 19.6423 14.3079C19.3783 13.8609 18.9877 13.5022 18.5198 13.2771C18.2096 13.1253 17.8723 13.0367 17.5275 13.0164C17.1828 12.996 16.8374 13.0444 16.5114 13.1586C16.1855 13.2728 15.8855 13.4506 15.6289 13.6817C15.3722 13.9128 15.164 14.1926 15.0164 14.5048ZM16.8689 16.8381L16.7701 16.9146L16.7682 16.7897C16.7638 16.4654 16.8139 16.1426 16.9165 15.8349L17.5223 16.1263C17.3459 16.3985 17.1251 16.6392 16.8689 16.8381ZM18.7436 14.3542C18.9601 14.5838 19.1153 14.8641 19.1951 15.1694C19.2749 15.4746 19.2766 15.7951 19.2002 16.1012L18.5278 15.7778C18.6781 15.3633 18.7519 14.925 18.7456 14.4842L18.7436 14.3542ZM18.8751 16.777C18.6837 17.0278 18.4322 17.2265 18.144 17.3547C17.8557 17.4829 17.5398 17.5366 17.2253 17.5108L17.328 17.4312C17.6763 17.1609 17.9727 16.8297 18.2028 16.4536L18.8751 16.777ZM17.895 14.4472L17.9938 14.3707L17.9957 14.4956C18.0001 14.82 17.95 15.1428 17.8474 15.4505L17.2416 15.1591C17.4179 14.8868 17.6388 14.6462 17.895 14.4472ZM17.3849 13.7678C17.4359 13.7678 17.4871 13.7706 17.5383 13.7748L17.4359 13.8541C17.0875 14.1244 16.7912 14.4557 16.5611 14.8318L15.8896 14.5087C16.065 14.2785 16.2912 14.0919 16.5506 13.9634C16.8099 13.8348 17.0955 13.7679 17.3849 13.7678ZM16.236 15.5076C16.0858 15.9221 16.012 16.3604 16.0183 16.8012L16.0203 16.9324C15.8034 16.7028 15.6478 16.4223 15.5679 16.1167C15.4881 15.8112 15.4865 15.4904 15.5634 15.1841L16.236 15.5076Z" fill="white"/>
<path d="M14.0668 18.2093L13.7417 18.8851L17.1211 20.5107L17.4462 19.8349L14.0668 18.2093Z" fill="white"/>
<path d="M17.4527 5.92214C17.233 5.70299 16.9353 5.57992 16.625 5.57992C16.3147 5.57992 16.017 5.70299 15.7973 5.92214C15.7184 6.00088 15.6115 6.0451 15.5 6.0451C15.3885 6.0451 15.2816 6.00088 15.2027 5.92214L15.1089 5.82839C14.6155 5.33614 13.947 5.05969 13.25 5.05969C12.553 5.05969 11.8845 5.33614 11.3911 5.82839C11.2907 5.92931 11.1713 6.00932 11.0398 6.06379C10.9083 6.11826 10.7673 6.1461 10.625 6.14571V6.89571C10.8659 6.89637 11.1045 6.84925 11.327 6.75709C11.5495 6.66492 11.7516 6.52953 11.9214 6.35876C12.274 6.00691 12.7519 5.8093 13.25 5.8093C13.7481 5.8093 14.226 6.00691 14.5786 6.35876L14.6723 6.45251C14.892 6.67166 15.1897 6.79473 15.5 6.79473C15.8103 6.79473 16.108 6.67166 16.3277 6.45251C16.4066 6.37374 16.5135 6.32949 16.625 6.32949C16.7365 6.32949 16.8434 6.37374 16.9223 6.45251L17.6135 7.14368C18.9577 8.49531 20.7627 9.28949 22.6673 9.36731C22.8286 9.99246 22.9317 10.6312 22.9754 11.2753L23.7237 11.2243C23.6245 9.73818 23.2284 8.28698 22.5589 6.9565L21.8886 7.29314C22.1012 7.71645 22.2847 8.1537 22.4379 8.60188C20.815 8.47313 19.2918 7.76773 18.1438 6.61332L17.4527 5.92214Z" fill="white"/>
<g filter="url(#filter1_d_267_7219)">
<path d="M14.1795 2.56979L20.4256 6.38685C20.6408 6.51908 20.8944 6.57478 21.1452 6.54494C21.3961 6.5151 21.6295 6.40146 21.8077 6.22243L23.2652 4.765C23.3355 4.69467 23.375 4.59928 23.375 4.49981C23.375 4.40035 23.3355 4.30496 23.2652 4.23463L22.5152 3.48463C22.4538 3.42335 22.3732 3.38519 22.2869 3.37666C22.2007 3.36812 22.1141 3.38973 22.042 3.4378L21.125 4.0491L19.4128 2.90767L20.3 1.72481C20.3542 1.65259 20.3805 1.56326 20.3741 1.47322C20.3677 1.38318 20.329 1.29846 20.2652 1.23463L19.8902 0.859634C19.8345 0.803985 19.7627 0.767259 19.6851 0.754656C19.6074 0.742053 19.5277 0.754214 19.4573 0.789415L17.3914 1.82236L16.6972 1.40579C16.3388 1.19019 15.9185 1.10082 15.5033 1.15193C15.0882 1.20303 14.7021 1.39168 14.4067 1.68777L14.1098 1.98463C14.0697 2.02475 14.0392 2.07344 14.0207 2.12705C14.0021 2.18065 13.9959 2.23778 14.0026 2.29411C14.0093 2.35045 14.0287 2.40452 14.0594 2.45228C14.09 2.50003 14.1311 2.54021 14.1795 2.56979Z" fill="white"/>
</g>
</g>
</g>
<defs>
<filter id="filter0_d_267_7219" x="-8.75" y="-5.25018" width="42.5" height="42.5005" filterUnits="userSpaceOnUse" color-interpolation-filters="sRGB">
<feFlood flood-opacity="0" result="BackgroundImageFix"/>
<feColorMatrix in="SourceAlpha" type="matrix" values="0 0 0 0 0 0 0 0 0 0 0 0 0 0 0 0 0 0 127 0" result="hardAlpha"/>
<feOffset dy="4"/>
<feGaussianBlur stdDeviation="5"/>
<feComposite in2="hardAlpha" operator="out"/>
<feColorMatrix type="matrix" values="0 0 0 0 0 0 0 0 0 0 0 0 0 0 0 0 0 0 0.1 0"/>
<feBlend mode="normal" in2="BackgroundImageFix" result="effect1_dropShadow_267_7219"/>
<feBlend mode="normal" in="SourceGraphic" in2="effect1_dropShadow_267_7219" result="shape"/>
</filter>
<filter id="filter1_d_267_7219" x="10" y="0.749817" width="17.375" height="13.803" filterUnits="userSpaceOnUse" color-interpolation-filters="sRGB">
<feFlood flood-opacity="0" result="BackgroundImageFix"/>
<feColorMatrix in="SourceAlpha" type="matrix" values="0 0 0 0 0 0 0 0 0 0 0 0 0 0 0 0 0 0 127 0" result="hardAlpha"/>
<feOffset dy="4"/>
<feGaussianBlur stdDeviation="2"/>
<feComposite in2="hardAlpha" operator="out"/>
<feColorMatrix type="matrix" values="0 0 0 0 0 0 0 0 0 0 0 0 0 0 0 0 0 0 0.1 0"/>
<feBlend mode="normal" in2="BackgroundImageFix" result="effect1_dropShadow_267_7219"/>
<feBlend mode="normal" in="SourceGraphic" in2="effect1_dropShadow_267_7219" result="shape"/>
</filter>
<clipPath id="clip0_267_7219">
<rect width="24" height="24" fill="white" transform="translate(0.5 -0.000183105)"/>
</clipPath>
</defs>
</svg>
