<svg width="24" height="24" viewBox="0 0 24 24" fill="none" xmlns="http://www.w3.org/2000/svg">
<g clip-path="url(#clip0_267_7164)">
<path d="M24 14.1561V13.4529C24 9.68386 21.1151 6.57629 17.4375 6.22144V4.78107H16.0312V6.22144C12.3537 6.57629 9.46875 9.68386 9.46875 13.4529V14.1561H16.0312V22.5936H0V23.9998H24V22.5936H17.4375V14.1561H24Z" fill="white"/>
<path d="M8.57302 6.07158L10.3125 5.15607L8.57302 4.24055L9.6217 2.57794L7.6575 2.65482L7.73438 0.690614L6.07177 1.7393L5.15625 -0.000183105L4.24073 1.7393L2.57812 0.690614L2.655 2.65482L0.690797 2.57794L1.73948 4.24055L0 5.15607L1.73948 6.07158L0.690797 7.73419L2.655 7.65732L2.57812 9.62152L4.24073 8.57283L5.15625 10.3123L6.07177 8.57283L7.73438 9.62152L7.6575 7.65732L9.6217 7.73419L8.57302 6.07158ZM5.15625 7.73419C3.73238 7.73419 2.57812 6.57994 2.57812 5.15607C2.57812 3.73219 3.73238 2.57794 5.15625 2.57794C6.58012 2.57794 7.73438 3.73219 7.73438 5.15607C7.73438 6.57994 6.58012 7.73419 5.15625 7.73419Z" fill="white"/>
<path d="M21.5955 19.2059C21.1206 19.5398 20.7774 19.7811 19.9998 19.7811C19.4742 19.7811 19.1472 19.6706 18.8438 19.496V21.1873H24V19.7811V18.3748C22.7775 18.3748 22.1221 18.8356 21.5955 19.2059Z" fill="white"/>
<path d="M13.5953 19.2059C13.1204 19.5398 12.7772 19.7811 11.9997 19.7811C11.2222 19.7811 10.879 19.5398 10.4041 19.2059C9.87759 18.8356 9.22223 18.3748 7.99983 18.3748C6.77737 18.3748 6.12202 18.8356 5.59542 19.2059C5.12053 19.5398 4.77741 19.7811 3.99989 19.7811C3.22238 19.7811 2.8793 19.5398 2.40441 19.2059C1.87781 18.8356 1.22245 18.3748 0 18.3748V19.7811V21.1873H14.625V18.6158C14.1991 18.7816 13.8785 19.0068 13.5953 19.2059Z" fill="white"/>
</g>
<defs>
<clipPath id="clip0_267_7164">
<rect width="24" height="24" fill="white"/>
</clipPath>
</defs>
</svg>
