<svg width="25" height="24" viewBox="0 0 25 24" fill="none" xmlns="http://www.w3.org/2000/svg">
<path d="M19.3321 1.87482L19.5196 1.12482H14.4803L14.6678 1.87482H19.3321Z" fill="white"/>
<path d="M18.1077 6.36019L16.2657 5.31506L15.6687 5.71294L16.5706 6.87281L18.1077 6.36019Z" fill="white"/>
<path d="M15.2266 17.7144C15.3571 17.5842 15.446 17.4182 15.482 17.2374C15.5181 17.0566 15.4996 16.8691 15.4289 16.6988C15.3582 16.5286 15.2386 16.3831 15.0851 16.2809C14.9317 16.1787 14.7514 16.1244 14.567 16.1248H14.4792C14.2586 16.1248 14.045 16.2031 13.8766 16.3457L10.4296 19.2617C10.2811 19.3874 10.0997 19.4681 9.90682 19.4941C9.71395 19.5201 9.51767 19.4904 9.34111 19.4086C9.16456 19.3267 9.0151 19.196 8.91037 19.032C8.80563 18.868 8.74999 18.6774 8.75 18.4828V15.6958C8.75031 15.5327 8.79316 15.3726 8.87431 15.2311C8.95547 15.0896 9.07212 14.9718 9.21275 14.8892L10.625 14.0379V11.9998H10.2571C10.0858 11.9992 9.91857 12.0516 9.77825 12.1498L7.42737 13.7998C7.41531 13.8085 7.40279 13.8165 7.38987 13.8238C6.97427 14.0461 6.61667 14.3628 6.34587 14.7486L4.586 17.2633C4.27285 17.711 3.7986 18.0201 3.26263 18.1258L2.375 18.3073V22.8748H8.924C9.43952 22.8751 9.93574 22.6788 10.3115 22.3258L15.1734 17.7688C15.1891 17.7488 15.2069 17.7306 15.2266 17.7144Z" fill="white"/>
<path d="M14.8251 9.57957L20.5164 7.68245C20.6071 7.65264 20.6886 7.60028 20.7534 7.53028C20.8182 7.46029 20.8642 7.37496 20.8869 7.28232L20.9244 7.12895C20.9583 6.99043 20.939 6.84425 20.8704 6.71927C20.8017 6.59429 20.6886 6.49962 20.5536 6.45395C20.4373 6.41485 20.3114 6.41485 20.1951 6.45395L16.5576 7.66707L15.3602 8.06607C15.1466 8.13806 14.9172 8.14878 14.6979 8.09702C14.4786 8.04525 14.2781 7.93307 14.1193 7.7732L13.5238 7.17882L13.0704 7.32882L14.3751 9.41832C14.421 9.49191 14.4904 9.54785 14.572 9.57711C14.6537 9.60638 14.7428 9.60724 14.8251 9.57957Z" fill="white"/>
<path d="M21.5 1.12482H20.2925L19.9888 2.34094C19.9684 2.42203 19.9216 2.49401 19.8557 2.54545C19.7898 2.59688 19.7086 2.62481 19.625 2.62482H14.375C14.2914 2.62481 14.2102 2.59688 14.1443 2.54545C14.0784 2.49401 14.0316 2.42203 14.0112 2.34094L13.7075 1.12482H12.5C12.2016 1.12482 11.9155 1.24334 11.7045 1.45432C11.4935 1.6653 11.375 1.95145 11.375 2.24982V17.4801L13.3921 15.7734C13.6959 15.5161 14.0811 15.3749 14.4792 15.3748H19.625C19.8239 15.3748 20.0147 15.4538 20.1553 15.5945C20.296 15.7351 20.375 15.9259 20.375 16.1248V17.6248C20.375 17.8237 20.296 18.0145 20.1553 18.1551C20.0147 18.2958 19.8239 18.3748 19.625 18.3748H15.6234L11.4927 22.2474C11.5855 22.4355 11.729 22.5939 11.9069 22.7047C12.0849 22.8156 12.2903 22.8745 12.5 22.8748H21.5C21.7984 22.8748 22.0845 22.7563 22.2955 22.5453C22.5065 22.3343 22.625 22.0482 22.625 21.7498V2.24982C22.625 1.95145 22.5065 1.6653 22.2955 1.45432C22.0845 1.24334 21.7984 1.12482 21.5 1.12482ZM12.1471 6.99807C12.1663 6.94462 12.1974 6.89623 12.238 6.85654C12.2786 6.81685 12.3276 6.7869 12.3815 6.76894L13.5065 6.39394C13.5726 6.37196 13.6434 6.36881 13.7112 6.38484C13.779 6.40087 13.8409 6.43544 13.8901 6.48469L14.6491 7.24369C14.7096 7.30479 14.786 7.34771 14.8697 7.36759C14.9533 7.38748 15.0409 7.38353 15.1224 7.35619L15.8161 7.12482L14.8291 5.85582C14.7975 5.81514 14.7745 5.76837 14.7618 5.71843C14.749 5.6685 14.7466 5.61646 14.7549 5.56557C14.7631 5.51469 14.7817 5.46605 14.8096 5.42269C14.8375 5.37933 14.874 5.34218 14.9169 5.31357L16.0419 4.56357C16.0996 4.52504 16.167 4.50331 16.2364 4.50079C16.3057 4.49828 16.3745 4.51508 16.4349 4.54932L19.0648 6.04219L19.9587 5.74407C20.1826 5.66955 20.4223 5.65652 20.6529 5.70633C20.8834 5.75614 21.0964 5.86697 21.2695 6.02723C21.4426 6.18749 21.5695 6.3913 21.6369 6.61736C21.7043 6.84342 21.7097 7.08343 21.6526 7.31232L21.6151 7.46569C21.5615 7.68082 21.4543 7.87887 21.3035 8.04137C21.1527 8.20386 20.9632 8.3255 20.7526 8.39494L15.062 10.2909C14.8203 10.372 14.5583 10.3692 14.3184 10.283C14.0784 10.1968 13.8746 10.0322 13.7397 9.81582L12.182 7.32357C12.152 7.27548 12.1332 7.2212 12.1272 7.16482C12.1211 7.10844 12.128 7.05143 12.1471 6.99807ZM15.125 14.6248H12.875C12.7755 14.6248 12.6802 14.5853 12.6098 14.515C12.5395 14.4447 12.5 14.3493 12.5 14.2498C12.5 14.1504 12.5395 14.055 12.6098 13.9847C12.6802 13.9143 12.7755 13.8748 12.875 13.8748H15.125C15.2245 13.8748 15.3198 13.9143 15.3902 13.9847C15.4605 14.055 15.5 14.1504 15.5 14.2498C15.5 14.3493 15.4605 14.4447 15.3902 14.515C15.3198 14.5853 15.2245 14.6248 15.125 14.6248ZM15.125 13.4998H12.875C12.7755 13.4998 12.6802 13.4603 12.6098 13.39C12.5395 13.3197 12.5 13.2243 12.5 13.1248C12.5 13.0254 12.5395 12.93 12.6098 12.8597C12.6802 12.7893 12.7755 12.7498 12.875 12.7498H15.125C15.2245 12.7498 15.3198 12.7893 15.3902 12.8597C15.4605 12.93 15.5 13.0254 15.5 13.1248C15.5 13.2243 15.4605 13.3197 15.3902 13.39C15.3198 13.4603 15.2245 13.4998 15.125 13.4998ZM21.5 14.6248H19.625C19.5255 14.6248 19.4302 14.5853 19.3598 14.515C19.2895 14.4447 19.25 14.3493 19.25 14.2498C19.25 14.1504 19.2895 14.055 19.3598 13.9847C19.4302 13.9143 19.5255 13.8748 19.625 13.8748H21.5C21.5995 13.8748 21.6948 13.9143 21.7652 13.9847C21.8355 14.055 21.875 14.1504 21.875 14.2498C21.875 14.3493 21.8355 14.4447 21.7652 14.515C21.6948 14.5853 21.5995 14.6248 21.5 14.6248ZM21.5 13.4998H19.625C19.5255 13.4998 19.4302 13.4603 19.3598 13.39C19.2895 13.3197 19.25 13.2243 19.25 13.1248C19.25 13.0254 19.2895 12.93 19.3598 12.8597C19.4302 12.7893 19.5255 12.7498 19.625 12.7498H21.5C21.5995 12.7498 21.6948 12.7893 21.7652 12.8597C21.8355 12.93 21.875 13.0254 21.875 13.1248C21.875 13.2243 21.8355 13.3197 21.7652 13.39C21.6948 13.4603 21.5995 13.4998 21.5 13.4998ZM21.5 11.9998H12.5C12.4005 11.9998 12.3052 11.9603 12.2348 11.89C12.1645 11.8197 12.125 11.7243 12.125 11.6248C12.125 11.5254 12.1645 11.43 12.2348 11.3597C12.3052 11.2893 12.4005 11.2498 12.5 11.2498H21.5C21.5995 11.2498 21.6948 11.2893 21.7652 11.3597C21.8355 11.43 21.875 11.5254 21.875 11.6248C21.875 11.7243 21.8355 11.8197 21.7652 11.89C21.6948 11.9603 21.5995 11.9998 21.5 11.9998Z" fill="white"/>
<path d="M19.6249 17.6248V16.1248H15.9661C16.1144 16.342 16.208 16.5919 16.2388 16.8531C16.2696 17.1143 16.2368 17.3791 16.1431 17.6248H19.6249Z" fill="white"/>
</svg>
