<svg width="24" height="24" viewBox="0 0 24 24" fill="none" xmlns="http://www.w3.org/2000/svg">
<g clip-path="url(#clip0_267_7181)">
<path d="M23.2969 19.0311C23.2969 17.8661 22.3525 16.9217 21.1875 16.9217H11.2969C10.1319 16.9217 9.1875 17.8661 9.1875 19.0311V21.1873H23.2969V19.0311Z" fill="white"/>
<path d="M2.8125 7.07794H8.48438V9.18732C8.48438 9.57596 8.79886 9.89044 9.1875 9.89044H9.59948C9.78623 9.89044 9.96478 9.81629 10.0966 9.68443L12.7031 7.07794H18.958C19.4435 7.07794 19.7826 6.59668 19.6206 6.13997C19.223 5.01868 18.1573 4.26544 16.9688 4.26544H2.8125L1.60059 1.84158C1.48111 1.60332 1.23802 1.45294 0.971625 1.45294H0.703125C0.314484 1.45294 0 1.76743 0 2.15607V4.26544C0 5.81658 1.26136 7.07794 2.8125 7.07794Z" fill="white"/>
<path d="M1.2002 11.0907L1.40621 10.8847V16.2186C1.40621 18.157 3.03029 19.7342 4.96871 19.7342H5.3807L5.17468 19.9402C4.90004 20.2149 4.90004 20.6599 5.17468 20.9345C5.44932 21.2091 5.89431 21.2091 6.16895 20.9345L7.5752 19.5282C7.84984 19.2536 7.84984 18.8086 7.5752 18.534L6.16895 17.1277C5.89431 16.8531 5.44932 16.8531 5.17468 17.1277C4.90004 17.4024 4.90004 17.8474 5.17468 18.122L5.3807 18.328H4.96871C3.80556 18.328 2.81246 17.3818 2.81246 16.2186V10.8847L3.01848 11.0907C3.29312 11.3654 3.73811 11.3654 4.01275 11.0907C4.28739 10.8161 4.28739 10.3711 4.01275 10.0965L2.6065 8.69023C2.33186 8.41559 1.88687 8.41559 1.61223 8.69023L0.20598 10.0965C-0.0686602 10.3711 -0.0686602 10.8161 0.20598 11.0907C0.480621 11.3654 0.925559 11.3654 1.2002 11.0907Z" fill="white"/>
<path d="M23.2969 13.4061C22.8891 13.4061 22.5114 13.5276 22.1884 13.7288L22.0767 13.0593C21.9071 12.0383 21.0323 11.2967 19.9962 11.2967H12.4882C11.4521 11.2967 10.5773 12.0383 10.4077 13.0593L10.296 13.7288C9.97294 13.5276 9.59527 13.4061 9.1875 13.4061C8.79886 13.4061 8.48438 13.7206 8.48438 14.1092C8.48438 14.4978 8.79886 14.8123 9.1875 14.8123C9.57544 14.8123 9.89062 15.1275 9.89062 15.5154H22.5938C22.5938 15.1275 22.9089 14.8123 23.2969 14.8123C23.6855 14.8123 24 14.4978 24 14.1092C24 13.7206 23.6855 13.4061 23.2969 13.4061Z" fill="white"/>
<path d="M9.1875 -0.000183105C8.79886 -0.000183105 8.48438 0.314301 8.48438 0.702942V2.85919H12.7031L10.0966 0.205833C9.96478 0.0739731 9.78623 -0.000183105 9.59948 -0.000183105L9.1875 -0.000183105Z" fill="white"/>
<path d="M9.1875 23.2967C9.1875 23.6853 9.50198 23.9998 9.89062 23.9998H12.7031C13.0918 23.9998 13.4062 23.6853 13.4062 23.2967V22.5936H9.1875V23.2967Z" fill="white"/>
<path d="M19.7812 23.9998H22.5938C22.9824 23.9998 23.2969 23.6853 23.2969 23.2967V22.5936H19.0781V23.2967C19.0781 23.6853 19.3926 23.9998 19.7812 23.9998Z" fill="white"/>
<path d="M17.6719 8.48419H14.8125C14.4898 8.48419 14.209 8.70394 14.1307 9.01702L13.9124 9.89044H18.5721L18.3538 9.01702C18.2755 8.70394 17.9947 8.48419 17.6719 8.48419Z" fill="white"/>
</g>
<defs>
<clipPath id="clip0_267_7181">
<rect width="24" height="24" fill="white"/>
</clipPath>
</defs>
</svg>
